<svg id="Layer_1" data-name="Layer 1" xmlns="http://www.w3.org/2000/svg" viewBox="0 0 1542.71 682.28"><defs><style>.cls-1{fill:#aab200;}.cls-2{fill:#002760;}.cls-3{fill:#fff;}</style></defs><path class="cls-1" d="M350.42,1305.4h6.16l10.2,28.27,8-28.27h5.35l7.93,28.27,10.2-28.27h6.16l-13.58,35.34h-6.16l-7.23-25.8-7.27,25.8H364Z" transform="translate(-228.65 -658.86)"/><path class="cls-1" d="M434.19,1305.4h6.16l10.2,28.27,8-28.27h5.35l7.93,28.27L482,1305.4h6.15l-13.58,35.34h-6.15l-7.23-25.8-7.27,25.8h-6.16Z" transform="translate(-228.65 -658.86)"/><path class="cls-1" d="M518,1305.4h6.16l10.2,28.27,8-28.27h5.35l7.93,28.27,10.2-28.27h6.16l-13.59,35.34h-6.16l-7.22-25.8-7.27,25.8h-6.16Z" transform="translate(-228.65 -658.86)"/><path class="cls-1" d="M599.21,1337.76a3.38,3.38,0,1,1,3.38,3.38A3.38,3.38,0,0,1,599.21,1337.76Z" transform="translate(-228.65 -658.86)"/><path class="cls-1" d="M653.44,1305.4h6.21l15.14,35.34h-6.16l-3.94-9.64h-16.3l-3.94,9.64h-6.16Zm9.13,20.44-6-14.89-6.06,14.89Z" transform="translate(-228.65 -658.86)"/><path class="cls-1" d="M707.62,1305.4h5.25V1320H733V1305.4h5.25v35.34H733v-15.45H712.87v15.45h-5.25Z" transform="translate(-228.65 -658.86)"/><path class="cls-1" d="M774.57,1305.4H781l13.33,21.71,13.28-21.71h6.46v35.34h-5.25v-27.57l-13.28,21.36h-2.42l-13.28-21.36v27.57h-5.3Z" transform="translate(-228.65 -658.86)"/><path class="cls-1" d="M850.46,1305.4h20.7v5.25H855.71V1320H870v5.25H855.71v10.2h15.86v5.25H850.46Z" transform="translate(-228.65 -658.86)"/><path class="cls-1" d="M906.41,1305.4h8.89c11,0,21.4,4.49,21.4,17.67s-10.45,17.67-21.4,17.67h-8.89Zm8.89,30.09c9.49,0,16.05-3.79,16.05-12.42s-6.56-12.42-16.05-12.42h-3.64v24.84Z" transform="translate(-228.65 -658.86)"/><path class="cls-1" d="M970.54,1305.4H977l13.33,21.71,13.28-21.71h6.46v35.34h-5.25v-27.57l-13.28,21.36h-2.42l-13.28-21.36v27.57h-5.3Z" transform="translate(-228.65 -658.86)"/><path class="cls-1" d="M1058,1305.4h6.21l15.15,35.34h-6.16l-3.94-9.64H1053l-3.93,9.64h-6.16Zm9.14,20.44-6-14.89-6.05,14.89Z" transform="translate(-228.65 -658.86)"/><path class="cls-1" d="M1112.22,1305.4h6.47l20.9,28.22V1305.4h5.25v35.34h-6.46l-20.91-28.28v28.28h-5.25Z" transform="translate(-228.65 -658.86)"/><path class="cls-1" d="M1179.18,1335.49l18.68-24.84h-17.47v-5.25h23.53v5.25l-18.73,24.84h20.34v5.25h-26.35Z" transform="translate(-228.65 -658.86)"/><path class="cls-1" d="M1235.83,1323.07a18.08,18.08,0,1,1,18.08,18.07A18.06,18.06,0,0,1,1235.83,1323.07Zm18.08,12.82a12.83,12.83,0,1,0-12.83-12.82A12.87,12.87,0,0,0,1253.91,1335.89Z" transform="translate(-228.65 -658.86)"/><path class="cls-1" d="M1304.3,1323.07a18.08,18.08,0,1,1,18.08,18.07A18.06,18.06,0,0,1,1304.3,1323.07Zm18.08,12.82a12.83,12.83,0,1,0-12.83-12.82A12.87,12.87,0,0,0,1322.38,1335.89Z" transform="translate(-228.65 -658.86)"/><path class="cls-1" d="M1374.79,1305.4h11.67c5.6,0,12.16,3.23,12.16,11,0,7.32-5.75,10.45-11.41,10.91l16.26,13.43h-8.53l-14.9-13.23v13.23h-5.25Zm10.86,17.52c4.24,0,7.62-2.33,7.62-6.52,0-3.43-2.52-5.75-6.81-5.75H1380v12.27Z" transform="translate(-228.65 -658.86)"/><path class="cls-1" d="M1434.78,1337.76a3.39,3.39,0,1,1,3.38,3.38A3.38,3.38,0,0,1,1434.78,1337.76Z" transform="translate(-228.65 -658.86)"/><path class="cls-1" d="M1475.88,1323.07a18.08,18.08,0,0,1,33.37-9.65l-4.39,2.93a12.85,12.85,0,1,0,0,13.38l4.39,2.93a18.06,18.06,0,0,1-33.37-9.59Z" transform="translate(-228.65 -658.86)"/><path class="cls-1" d="M1540.06,1323.07a18.08,18.08,0,1,1,18.07,18.07A18.06,18.06,0,0,1,1540.06,1323.07Zm18.07,12.82a12.83,12.83,0,1,0-12.82-12.82A12.88,12.88,0,0,0,1558.13,1335.89Z" transform="translate(-228.65 -658.86)"/><path class="cls-1" d="M1610,1305.4h6.47l13.33,21.71,13.27-21.71h6.47v35.34h-5.25v-27.57l-13.28,21.36h-2.43l-13.27-21.36v27.57H1610Z" transform="translate(-228.65 -658.86)"/><path class="cls-2" d="M295.72,1113.4h27.5l67.08,156.51H363l-17.44-42.7H273.36l-17.44,42.7H228.65ZM336.19,1204l-26.6-66-26.84,66Z" transform="translate(-228.65 -658.86)"/><path class="cls-2" d="M396.38,1113.4h21.46V1187c7.83-12.52,20.35-20.79,36.67-20.79,30.86,0,44.5,22.8,44.5,52.32v51.42H477.54v-49.63c0-19.46-11-32.65-28.62-32.65-20.34,0-31.08,17.22-31.08,40.25v42H396.38Z" transform="translate(-228.65 -658.86)"/><path class="cls-2" d="M511.21,1168h21.46v16.54c7.16-11,18.11-18.33,33.09-18.33,19,0,28.62,8.49,35.11,21.91,7.82-13,20.57-21.91,37.11-21.91,31.08,0,42.93,22.8,42.93,52.32v51.42H659.45v-49.63c0-17.67-7.6-32.65-25-32.65-20.57,0-27.73,20.13-27.73,38.46v43.82H585.22v-49.63c0-17.67-7.38-32.65-25.05-32.65-20.34,0-27.5,20.13-27.5,38.46v43.82H511.21Z" transform="translate(-228.65 -658.86)"/><path class="cls-2" d="M691.25,1218.93c0-29.06,22.13-52.76,52.77-52.76,30.85,0,55.67,23.25,51.42,60.81H715.62c3.35,13,14.76,23.26,33.76,23.26,15.65,0,23.93-8.27,27.51-13.86l17.88,10.95c-8.72,14.09-24.37,24.37-45.39,24.37C714.28,1271.7,691.25,1248.23,691.25,1218.93Zm83.17-8.94c-2.45-15-13.63-24.15-30.4-24.15-16.1,0-25.27,11.85-28.4,24.15Z" transform="translate(-228.65 -658.86)"/><path class="cls-2" d="M804.12,1218.93c0-29.06,21.91-52.76,51.2-52.76,14.09,0,26.38,6.93,34.88,16.77V1113.4h21.46v156.51H890.2v-14.75c-8.5,9.83-20.79,16.54-34.88,16.54C826,1271.7,804.12,1248.23,804.12,1218.93Zm54.78,31.31a31.31,31.31,0,1,0-31.53-31.31A31.25,31.25,0,0,0,858.9,1250.24Z" transform="translate(-228.65 -658.86)"/><path class="cls-1" d="M982.52,1113.4h28.62l59,96.14,58.8-96.14h28.62v156.51h-23.25V1147.83l-58.81,94.58H1064.8l-58.8-94.58v122.08H982.52Z" transform="translate(-228.65 -658.86)"/><path class="cls-1" d="M1168.58,1240.85c0-27.95,30.19-32.65,51-32.65h16.1c-.67-13-5.37-20.57-22.81-20.57-12.52,0-25.49,8-30.18,11.85l-10.29-17.21c9.39-7.61,25.27-16.1,42.26-16.1,29.07,0,42.48,15.87,42.48,45.16v58.58h-21.46v-10.73c-6.26,7.16-15.88,12.52-29.74,12.52C1185.13,1271.7,1168.58,1259.4,1168.58,1240.85Zm40.92,13c15.87,0,24.37-10.51,26.16-18.34v-9.61h-17.89c-18.33,0-27.5,4.92-27.5,15C1190.27,1248.9,1199.21,1253.82,1209.5,1253.82Z" transform="translate(-228.65 -658.86)"/><path class="cls-1" d="M1266.26,1168h21.46v19c7.83-12.52,20.35-20.79,36.67-20.79,31.08,0,44.72,22.8,44.72,52.32v51.42h-21.47v-49.63c0-19.46-11.17-32.65-28.84-32.65-20.34,0-31.08,17.22-31.08,40.25v42h-21.46Z" transform="translate(-228.65 -658.86)"/><path class="cls-1" d="M1380.05,1248.45l61.26-59h-57.68V1168h87.87v21.46l-61.26,59h64.84v21.46h-95Z" transform="translate(-228.65 -658.86)"/><path class="cls-1" d="M1478.12,1218.93c0-29.06,24.81-52.76,54.78-52.76s54.55,23.7,54.55,52.76c0,29.3-24.59,52.77-54.55,52.77S1478.12,1248.23,1478.12,1218.93Zm54.78,31.31a31.31,31.31,0,1,0-31.53-31.31A31.25,31.25,0,0,0,1532.9,1250.24Z" transform="translate(-228.65 -658.86)"/><path class="cls-1" d="M1594.91,1218.93c0-29.06,24.82-52.76,54.78-52.76s54.55,23.7,54.55,52.76c0,29.3-24.59,52.77-54.55,52.77S1594.91,1248.23,1594.91,1218.93Zm54.78,31.31a31.31,31.31,0,1,0-31.53-31.31A31.25,31.25,0,0,0,1649.69,1250.24Z" transform="translate(-228.65 -658.86)"/><path class="cls-1" d="M1713.44,1168h21.47v23.47c7.6-14.08,20.57-23,36.44-24.82V1193c-24.59-1.79-36.44,13-36.44,36.67v40.24h-21.47Z" transform="translate(-228.65 -658.86)"/><polyline class="cls-1" points="716.34 401.5 794.25 331.33 721.97 331.21"/><path class="cls-2" d="M1195.57,967.5l-2,23.16h33.31l2-23.16Zm6.11-130.22-57.21,83-42.48-83h-38.57l-8.31,95.22h33.3l4-45.7,25.18,45.7,17.19,31.21h12l22.65-31.21,33.15-45.7-4,45.7h33.31l8.31-95.22ZM1050,990.66h33.31l2-23.16h-33.31Z" transform="translate(-228.65 -658.86)"/><path class="cls-1" d="M1273.75,1117.21l-69.61-56.86H945l23.42-292.77h333.84Zm-306.86-77.08h244.46l45.38,37.07,23.59-289.4H987.08Z" transform="translate(-228.65 -658.86)"/><polygon class="cls-2" points="496.11 0 469.1 331.33 794.25 331.33 816.86 48.69 555.74 48.69 496.11 0"/><line class="cls-1" x1="721.96" y1="331.21" x2="716.34" y2="401.5"/><path class="cls-3" d="M950.11,901H905L917,944.52h46.49ZM904.48,753.09H858L803.6,866h44.15L877,801.23,895.17,866h44.15ZM786.74,901l-20.93,43.48H812.3L831.94,901Z" transform="translate(-228.65 -658.86)"/></svg>